<?xml version="1.0" standalone="no"?>
<!DOCTYPE svg PUBLIC "-//W3C//DTD SVG 20010904//EN"
 "http://www.w3.org/TR/2001/REC-SVG-20010904/DTD/svg10.dtd">
<svg version="1.0" xmlns="http://www.w3.org/2000/svg"
 width="261.000000pt" height="264.000000pt" viewBox="0 0 261.000000 264.000000"
 preserveAspectRatio="xMidYMid meet">
<metadata>
Created by potrace 1.15, written by Peter Selinger 2001-2017
</metadata>
<g transform="translate(0.000000,264.000000) scale(0.100000,-0.100000)"
fill="#000000" stroke="none">
<path d="M1064 2566 c-472 -90 -845 -437 -972 -906 -24 -88 -26 -111 -26 -300
0 -189 2 -212 26 -300 119 -438 450 -769 888 -888 88 -24 111 -26 300 -26 189
0 212 2 300 26 438 119 769 450 888 888 24 88 26 111 26 300 0 189 -2 212 -26
300 -119 438 -454 773 -888 887 -80 21 -122 26 -270 29 -118 2 -198 -1 -246
-10z m-322 -783 l3 -78 153 -3 152 -3 0 -149 0 -150 100 0 100 0 0 -80 0 -80
-100 0 -100 0 0 -150 0 -149 -152 -3 -153 -3 -3 -77 -3 -78 -174 0 -175 0 0
80 0 80 100 0 100 0 0 75 0 75 -100 0 -100 0 0 75 0 75 175 0 175 0 0 -75 0
-75 80 0 80 0 0 230 0 230 -80 0 -80 0 0 -75 0 -75 -175 0 -175 0 0 75 0 75
100 0 100 0 0 75 0 75 -100 0 -100 0 0 80 0 80 175 0 174 0 3 -77z m1488 -3
l0 -80 -100 0 -100 0 0 -75 0 -75 100 0 100 0 0 -75 0 -75 -175 0 -175 0 0 75
0 75 -80 0 -80 0 0 -230 0 -230 80 0 80 0 0 75 0 75 175 0 175 0 0 -75 0 -75
-100 0 -100 0 0 -75 0 -75 100 0 100 0 0 -80 0 -80 -175 0 -174 0 -3 78 -3 77
-152 3 -153 3 0 149 0 150 -100 0 -100 0 0 80 0 80 100 0 100 0 0 150 0 149
153 3 152 3 3 78 3 77 174 0 175 0 0 -80z"/>
<path d="M2380 2010 c305 -507 211 -1166 -224 -1578 -182 -172 -392 -279 -644
-329 -118 -23 -346 -23 -464 0 -385 76 -702 306 -892 647 -55 99 -43 62 19
-58 178 -347 493 -584 888 -669 115 -25 399 -25 514 0 123 26 227 63 343 123
344 176 582 493 667 887 25 115 25 399 0 514 -36 166 -111 346 -198 475 -58
86 -63 79 -9 -12z"/>
</g>
</svg>
