<?xml version="1.0" standalone="no"?>
<!DOCTYPE svg PUBLIC "-//W3C//DTD SVG 20010904//EN"
 "http://www.w3.org/TR/2001/REC-SVG-20010904/DTD/svg10.dtd">
<svg version="1.0" xmlns="http://www.w3.org/2000/svg"
 width="260.000000pt" height="260.000000pt" viewBox="0 0 260.000000 260.000000"
 preserveAspectRatio="xMidYMid meet">
<metadata>
Created by potrace 1.15, written by Peter Selinger 2001-2017
</metadata>
<g transform="translate(0.000000,260.000000) scale(0.100000,-0.100000)"
fill="#000000" stroke="none">
<path d="M1300 1950 l0 -110 -215 0 -215 0 0 -215 0 -215 -135 0 -135 0 0
-110 0 -110 135 0 135 0 0 -215 0 -215 215 0 215 0 0 -110 0 -110 245 0 245 0
0 110 0 110 -135 0 -135 0 0 105 0 104 133 3 132 3 3 108 3 107 -246 0 -245 0
0 -105 0 -105 -110 0 -110 0 0 319 0 318 100 7 c55 4 105 4 110 1 6 -3 10 -53
10 -111 l0 -104 245 0 246 0 -3 108 -3 107 -132 3 -133 3 0 104 0 105 135 0
135 0 0 110 0 110 -245 0 -245 0 0 -110z"/>
</g>
</svg>
