<?xml version="1.0" standalone="no"?>
<!DOCTYPE svg PUBLIC "-//W3C//DTD SVG 20010904//EN"
 "http://www.w3.org/TR/2001/REC-SVG-20010904/DTD/svg10.dtd">
<svg version="1.0" xmlns="http://www.w3.org/2000/svg"
 width="100.000000pt" height="100.000000pt" viewBox="0 0 100.000000 100.000000"
 preserveAspectRatio="xMidYMid meet">

<g transform="translate(0.000000,100.000000) scale(0.100000,-0.100000)"
fill="#000000" stroke="none">
<path d="M20 500 l0 -480 480 0 480 0 0 480 0 480 -480 0 -480 0 0 -480z m660
202 c0 -74 -26 -155 -85 -270 -30 -57 -55 -111 -55 -118 0 -10 -13 -14 -40
-14 -27 0 -40 4 -40 14 0 7 -25 61 -55 118 -59 115 -85 196 -85 270 l0 48 180
0 180 0 0 -48z m-380 -31 c0 -15 -8 -21 -35 -23 l-36 -3 27 -53 c15 -31 41
-63 60 -75 32 -21 63 -67 45 -67 -14 0 -85 50 -104 73 -28 35 -55 90 -62 130
l-7 37 56 0 c49 0 56 -3 56 -19z m505 -18 c-7 -40 -34 -95 -62 -130 -19 -23
-90 -73 -104 -73 -18 0 13 46 45 67 19 12 45 44 60 75 l27 53 -36 3 c-27 2
-35 8 -35 23 0 16 7 19 56 19 l56 0 -7 -37z m-261 -399 c5 -17 18 -30 37 -37
18 -7 28 -18 27 -27 -5 -23 -211 -22 -216 1 -2 11 8 20 27 27 20 7 33 20 37
36 5 22 12 26 44 26 32 0 39 -4 44 -26z"/>
<path d="M486 615 c-3 -8 -12 -15 -20 -15 -11 0 -12 -5 -3 -25 7 -14 17 -23
22 -21 6 2 19 -1 29 -7 16 -8 18 -6 12 8 -3 10 -2 23 3 29 6 7 1 17 -14 28
-20 15 -24 15 -29 3z"/>
</g>
</svg>
