<svg height="638pt" viewBox="0 -57 638.75006 638" width="638pt" xmlns="http://www.w3.org/2000/svg"><path d="m0 274.042969h182.5v57.03125h-182.5zm0 0"/><path d="m456.25 194.199219h45.625v136.875h-45.625zm0 0"/><path d="m490.472656 353.886719h-45.628906c-6.296875 0-11.40625-5.105469-11.40625-11.402344v-159.6875c0-6.300781 5.109375-11.410156 11.40625-11.410156h45.628906c-50.402344-94.492188-167.855468-130.238281-262.351562-79.84375-33.941406 18.105469-61.738282 45.898437-79.84375 79.84375h45.628906c6.296875 0 11.40625 5.109375 11.40625 11.410156v159.6875c0 6.296875-5.109375 11.402344-11.40625 11.402344h-45.628906c50.402344 94.492187 167.855468 130.242187 262.351562 79.84375 33.941406-18.105469 61.734375-45.894531 79.84375-79.84375zm-205.90625-30.613281c-1.96875 5.984374-8.417968 9.246093-14.402344 7.277343-3.441406-1.132812-6.140624-3.832031-7.273437-7.277343l-34.21875-102.65625 21.671875-7.207032 23.40625 70.195313 23.40625-70.195313 21.671875 7.207032zm91.839844 7.800781h-45.621094v-22.808594h45.621094c6.300781 0 11.402344-5.109375 11.402344-11.410156 0-6.296875-5.101563-11.402344-11.402344-11.402344h-11.40625c-18.898438 0-34.214844-15.324219-34.214844-34.222656 0-18.898438 15.316406-34.21875 34.214844-34.21875h34.21875v22.8125h-34.21875c-6.296875 0-11.40625 5.105469-11.40625 11.40625s5.109375 11.410156 11.40625 11.410156h11.40625c18.898438 0 34.222656 15.316406 34.222656 34.214844 0 18.898437-15.324218 34.21875-34.222656 34.21875zm0 0"/><path d="m0 194.199219h182.5v57.03125h-182.5zm0 0"/><path d="m524.6875 194.199219h45.628906v136.875h-45.628906zm0 0"/><path d="m593.125 194.199219h45.625v136.875h-45.625zm0 0"/><path d="m313.671875 23.1875-.535156-22.8125c-3.996094.101562-7.988281.273438-11.910157.546875l1.539063 22.8125c3.609375-.28125 7.242187-.464844 10.90625-.546875zm0 0"/><path d="m218.804688 45.179688-9.605469-20.703126c-3.613281 1.6875-7.171875 3.421876-10.6875 5.246094l10.519531 20.246094c3.214844-1.664062 6.480469-3.273438 9.773438-4.789062zm0 0"/><path d="m348.859375 1.9375c-3.945313-.445312-7.890625-.796875-11.871094-1.058594l-1.542969 22.808594c3.652344.238281 7.269532.5625 10.871094.972656zm0 0"/><path d="m190.175781 60.894531-12.316406-19.195312c-3.425781 2.15625-6.652344 4.390625-9.890625 6.683593l13.1875 18.605469c2.957031-2.101562 5.964844-4.128906 9.019531-6.09375zm0 0"/><path d="m418.117188 19.535156c-3.679688-1.519531-7.40625-2.945312-11.175782-4.277344l-7.644531 21.5c3.425781 1.234376 6.847656 2.527344 10.269531 3.890626zm0 0"/><path d="m104.171875 157.324219-20.53125-10.023438c-1.742187 3.570313-3.410156 7.191407-5.019531 10.855469l20.921875 9.125c1.480469-3.34375 3.023437-6.664062 4.628906-9.957031zm0 0"/><path d="m475.191406 444.546875 14.832032 17.355469c3.035156-2.597656 5.988281-5.257813 8.898437-7.980469l-15.613281-16.628906c-2.644532 2.484375-5.347656 4.902343-8.117188 7.253906zm0 0"/><path d="m511.675781 119.800781 18.316407-13.597656c-2.371094-3.203125-4.824219-6.34375-7.347657-9.425781l-17.664062 14.445312c2.296875 2.800782 4.535156 5.664063 6.695312 8.578125zm0 0"/><path d="m480.058594 55.238281c-3.167969-2.445312-6.386719-4.828125-9.664063-7.140625l-13.121093 18.652344c2.96875 2.09375 5.863281 4.230469 8.71875 6.476562zm0 0"/><path d="m420.414062 479.882812 9.648438 20.664063c3.605469-1.660156 7.167969-3.417969 10.6875-5.265625l-10.585938-20.214844c-3.207031 1.679688-6.464843 3.273438-9.75 4.816406zm0 0"/><path d="m450.296875 35.242188c-3.460937-1.980469-6.949219-3.882813-10.472656-5.699219l-10.519531 20.242187c3.242187 1.679688 6.4375 3.429688 9.597656 5.25zm0 0"/><path d="m290.429688 523.394531c3.941406.433594 7.886718.789063 11.878906 1.039063l1.472656-22.8125c-3.660156-.230469-7.277344-.554688-10.882812-.945313zm0 0"/><path d="m384.09375 8.347656c-3.855469-.980468-7.742188-1.871094-11.660156-2.671875l-4.558594 22.34375c3.554688.734375 7.105469 1.53125 10.609375 2.433594zm0 0"/><path d="m255.214844 517.078125c3.851562.964844 7.738281 1.847656 11.644531 2.648437l4.5625-22.371093c-3.566406-.714844-7.105469-1.527344-10.628906-2.40625zm0 0"/><path d="m249.316406 33.507812-6.695312-21.808593c-3.804688 1.140625-7.582032 2.417969-11.316406 3.742187l7.648437 21.503906c3.425781-1.21875 6.878906-2.363281 10.363281-3.4375zm0 0"/><path d="m140.605469 103.214844-17.042969-15.167969c-2.648438 2.972656-5.226562 6.011719-7.746094 9.121094l17.691406 14.414062c2.300782-2.839843 4.664063-5.632812 7.097657-8.367187zm0 0"/><path d="m163.941406 80.378906-14.828125-17.363281c-3.042969 2.59375-6.003906 5.257813-8.894531 7.988281l15.589844 16.660156c2.660156-2.519531 5.375-4.925781 8.132812-7.285156zm0 0"/><path d="m120.53125 129.003906-18.957031-12.675781c-2.203125 3.300781-4.355469 6.640625-6.414063 10.027344l19.472656 11.875c1.902344-3.125 3.867188-6.199219 5.898438-9.226563zm0 0"/><path d="m281.140625 26.140625-3.652344-22.523437c-3.941406.648437-7.835937 1.351562-11.710937 2.152343l4.632812 22.34375c3.546875-.730469 7.128906-1.402343 10.730469-1.972656zm0 0"/><path d="m358.15625 499.058594 3.660156 22.511718c3.949219-.636718 7.859375-1.378906 11.75-2.1875l-4.699218-22.324218c-3.570313.742187-7.136719 1.414062-10.710938 2zm0 0"/><path d="m325.578125 502.078125.605469 22.8125c3.992187-.113281 7.988281-.28125 11.910156-.578125l-1.609375-22.746094c-3.605469.25-7.242187.417969-10.90625.511719zm0 0"/><path d="m389.933594 491.605469 6.699218 21.8125c3.800782-1.171875 7.578126-2.429688 11.332032-3.777344l-7.683594-21.480469c-3.425781 1.234375-6.871094 2.382813-10.347656 3.445313zm0 0"/><path d="m529.355469 147.300781 19.980469-11.03125c-1.929688-3.476562-3.921876-6.898437-5.976563-10.265625l-19.472656 11.875c1.894531 3.09375 3.71875 6.234375 5.46875 9.421875zm0 0"/><path d="m132.390625 446.664062c2.808594 2.855469 5.667969 5.628907 8.589844 8.328126l15.492187-16.695313c-2.671875-2.464844-5.257812-5-7.8125-7.585937zm0 0"/><path d="m498.523438 421.640625 16.992187 15.21875c2.679687-2.976563 5.257813-6.039063 7.765625-9.128906l-17.734375-14.34375c-2.277344 2.808593-4.621094 5.5625-7.023437 8.253906zm0 0"/><path d="m534.804688 367.5 20.53125 9.980469c1.734374-3.582031 3.394531-7.210938 4.984374-10.875l-20.941406-9.042969c-1.425781 3.351562-2.953125 6.664062-4.574218 9.9375zm0 0"/><path d="m448.996094 464.105469 12.363281 19.1875c3.347656-2.167969 6.640625-4.402344 9.875-6.707031l-13.230469-18.582032c-2.941406 2.066406-5.945312 4.105469-9.007812 6.101563zm0 0"/><path d="m518.492188 395.839844 18.980468 12.652344c2.203125-3.324219 4.359375-6.660157 6.410156-10.082032l-19.511718-11.785156c-1.898438 3.113281-3.855469 6.191406-5.878906 9.214844zm0 0"/><path d="m127.382812 405.890625-18.246093 13.6875c2.367187 3.191406 4.84375 6.339844 7.378906 9.40625l17.621094-14.472656c-2.335938-2.851563-4.585938-5.726563-6.753907-8.621094zm0 0"/><path d="m109.625 378.433594-19.9375 11.078125c1.929688 3.484375 3.933594 6.90625 6 10.261719l19.449219-11.929688c-1.90625-3.078125-3.734375-6.210938-5.511719-9.410156zm0 0"/><path d="m506.757812 79c-2.78125-2.84375-5.632812-5.625-8.558593-8.328125l-15.554688 16.6875c2.65625 2.488281 5.253907 5.027344 7.800781 7.621094zm0 0"/><path d="m221.121094 505.957031c3.710937 1.519531 7.449218 2.933594 11.210937 4.242188l7.574219-21.523438c-3.421875-1.207031-6.84375-2.488281-10.210938-3.851562zm0 0"/><path d="m188.933594 490.304688c3.457031 1.988281 6.960937 3.890624 10.503906 5.707031l10.449219-20.269531c-3.242188-1.679688-6.445313-3.425782-9.582031-5.222657zm0 0"/><path d="m159.195312 470.417969c3.136719 2.425781 6.355469 4.789062 9.605469 7.070312l13.117188-18.648437c-2.984375-2.101563-5.894531-4.269532-8.792969-6.492188zm0 0"/></svg>